<?xml version="1.0" standalone="no"?>
<!DOCTYPE svg PUBLIC "-//W3C//DTD SVG 20010904//EN"
 "http://www.w3.org/TR/2001/REC-SVG-20010904/DTD/svg10.dtd">
<svg version="1.0" xmlns="http://www.w3.org/2000/svg"
 width="2828.000000pt" height="2828.000000pt" viewBox="0 0 2828.000000 2828.000000"
 preserveAspectRatio="xMidYMid meet">
<metadata>
Created by potrace 1.14, written by Peter Selinger 2001-2017
</metadata>
<g transform="translate(0.000000,2828.000000) scale(0.100000,-0.100000)"
fill="#000000" stroke="none">
<path d="M3468 17922 c-9 -2 -19 -13 -22 -25 -10 -38 -6 -1421 4 -1437 8 -13
73 -16 455 -20 381 -4 447 -7 456 -20 9 -15 6 -2312 -7 -4795 -4 -872 -3
-1073 8 -1087 12 -16 69 -18 763 -23 512 -5 755 -3 765 4 17 12 23 773 28
3961 2 976 5 1811 8 1855 3 44 10 85 15 90 6 6 174 11 452 13 400 2 443 4 455
19 9 13 12 175 12 730 0 668 -1 713 -17 722 -16 8 -3333 21 -3375 13z"/>
<path d="M14293 17878 c-4 -7 -9 -470 -10 -1028 -6 -2347 -7 -2504 -21 -2527
-7 -12 -47 -49 -90 -82 -155 -119 -305 -294 -389 -453 -24 -47 -51 -81 -77
-100 -118 -86 -274 -147 -433 -170 -149 -22 -346 14 -464 85 -54 32 -84 77
-63 96 5 5 54 16 109 25 256 39 498 138 654 265 59 48 126 139 146 201 9 28
25 55 35 60 10 6 53 10 94 10 126 0 118 -32 112 438 -4 401 -7 439 -44 637
-86 467 -347 904 -667 1117 -174 116 -349 188 -570 234 -100 21 -526 30 -708
14 -343 -29 -669 -173 -915 -405 -244 -230 -399 -508 -495 -885 -19 -74 -40
-189 -47 -255 -6 -66 -16 -150 -21 -187 -5 -37 -9 -138 -9 -225 0 -87 -4 -163
-8 -170 -7 -11 -42 -27 -221 -100 -59 -24 -65 -25 -76 -10 -8 12 -14 106 -18
314 -3 164 -10 323 -16 353 -6 30 -20 107 -32 170 -46 250 -169 548 -306 740
-82 114 -251 292 -342 359 -159 118 -330 207 -492 256 -197 61 -190 60 -534
59 -341 -1 -321 2 -548 -59 -308 -81 -601 -274 -799 -525 -140 -178 -259 -423
-320 -660 -45 -174 -57 -250 -68 -425 -6 -88 -13 -167 -15 -175 -2 -8 -5 -611
-6 -1340 -2 -1310 2 -1533 32 -1705 91 -524 342 -953 699 -1189 169 -113 367
-197 540 -230 47 -9 119 -23 160 -31 173 -33 570 -37 685 -7 22 6 80 18 128
27 295 54 585 229 785 473 224 274 350 586 421 1037 27 177 44 1008 21 1045
-8 13 -62 16 -349 20 -187 3 -343 8 -347 13 -4 4 2 18 15 30 30 33 40 75 47
202 7 128 26 210 54 225 11 6 93 10 193 10 197 0 207 -4 207 -74 0 -21 12 -77
26 -124 22 -72 34 -94 78 -140 28 -30 64 -61 81 -70 60 -31 178 -62 236 -62
98 0 93 25 87 -415 -3 -209 -2 -420 3 -470 21 -209 42 -371 51 -394 5 -14 18
-62 28 -107 87 -372 359 -774 658 -971 171 -113 389 -204 557 -232 39 -7 102
-19 140 -26 126 -25 349 -37 475 -26 63 6 135 12 160 14 94 8 278 50 379 86
369 132 620 355 796 710 72 144 144 342 176 481 41 186 47 217 63 370 9 85 22
193 29 240 7 53 12 205 12 405 l0 320 -50 7 c-27 3 -206 7 -397 7 -191 1 -349
5 -352 10 -7 11 12 26 44 36 14 4 70 28 125 52 109 49 203 107 309 190 38 29
74 52 80 50 6 -2 28 -35 48 -73 44 -81 127 -162 205 -200 37 -18 91 -32 174
-44 76 -11 125 -22 131 -31 6 -9 8 -449 5 -1231 -4 -906 -2 -1221 7 -1232 10
-13 105 -15 739 -17 429 -1 732 2 737 7 5 5 12 562 15 1349 4 778 11 1353 16
1371 12 39 71 97 95 92 11 -2 23 -18 30 -43 20 -69 71 -160 108 -193 43 -38
80 -58 154 -83 30 -10 61 -24 68 -30 12 -10 14 -216 14 -1235 0 -1155 1 -1224
18 -1232 9 -5 344 -12 744 -15 621 -5 728 -4 738 8 9 11 13 322 17 1255 7
1386 -1 1258 81 1278 57 14 182 86 249 145 30 26 60 47 68 47 8 0 23 -19 33
-43 23 -53 72 -109 118 -138 39 -24 201 -68 252 -69 52 0 237 47 293 75 28 15
60 25 72 23 l22 -3 0 -1283 c0 -1129 2 -1284 15 -1292 9 -6 310 -10 766 -10
617 0 754 2 763 13 8 10 14 819 21 2947 7 2133 13 2937 21 2947 9 10 95 13
455 13 390 0 444 2 458 16 14 14 16 91 14 737 l-3 722 -350 7 c-528 9 -3046
11 -3056 1 -4 -4 -11 -330 -15 -723 -7 -670 -6 -717 10 -733 15 -15 41 -17
204 -17 314 0 686 -12 700 -23 9 -7 12 -192 12 -861 0 -952 5 -886 -73 -907
-23 -6 -55 -20 -70 -31 -28 -20 -30 -20 -110 -3 -193 42 -499 -7 -782 -125
-130 -54 -132 -55 -150 -40 -13 11 -15 69 -15 409 0 218 -5 441 -10 496 -35
330 -47 408 -85 545 -53 193 -134 380 -215 500 -43 63 -143 161 -212 208 -71
49 -203 100 -298 117 -110 19 -300 19 -393 0 -85 -17 -222 -71 -298 -116 -185
-108 -289 -207 -379 -359 -56 -95 -75 -114 -91 -89 -5 8 -9 398 -9 885 0 786
-2 872 -16 878 -9 3 -341 6 -739 6 -568 0 -726 -3 -732 -12z m-5795 -2284 c62
-39 106 -107 126 -193 21 -93 24 -890 3 -931 l-13 -25 -228 -3 c-160 -2 -233
1 -242 9 -12 9 -14 93 -14 468 0 501 2 519 60 611 28 43 42 55 100 87 42 24
151 11 208 -23z m3823 -5 c56 -31 102 -100 117 -174 17 -84 16 -1072 -1 -1102
-7 -11 -44 -50 -82 -85 -167 -150 -239 -250 -311 -432 -13 -33 -24 -70 -24
-82 0 -12 -10 -33 -21 -48 -26 -34 -60 -32 -68 4 -3 14 -4 408 -1 875 5 752 7
856 22 898 41 121 131 181 259 174 46 -3 80 -12 110 -28z m3629 -147 c0 -18
-57 -110 -93 -149 -33 -36 -51 -30 -42 14 10 52 28 85 70 122 40 35 65 40 65
13z m285 -202 c18 -51 19 -89 23 -505 2 -247 1 -478 -3 -512 -6 -59 -14 -73
-136 -257 -134 -201 -189 -262 -276 -308 -74 -39 -73 -45 -72 391 0 516 -3
494 104 710 87 176 141 276 242 449 45 77 59 93 76 90 17 -2 27 -17 42 -58z
m2419 -836 c9 -3 16 -14 16 -23 0 -15 -183 -283 -265 -386 -144 -182 -240
-282 -329 -343 -109 -75 -147 -92 -212 -92 -95 0 -94 -2 -94 240 0 197 1 209
23 251 14 25 51 66 88 96 170 138 362 209 679 252 36 5 68 9 72 10 3 0 13 -2
22 -5z m-5444 -147 c56 -28 26 -126 -62 -202 -122 -105 -433 -206 -455 -148
-19 48 65 259 125 317 17 15 45 32 64 36 56 13 300 11 328 -3z m-2904 -11 c6
-17 -8 -40 -95 -156 -96 -128 -111 -129 -111 -1 0 71 1 75 34 105 31 30 109
64 149 65 10 1 20 -5 23 -13z m8654 -375 c0 -148 -3 -276 -6 -285 -4 -9 -18
-16 -33 -16 -44 0 -68 25 -82 85 -15 68 -2 160 48 329 66 228 73 217 73 -113z
m-10132 -428 c13 -12 24 -40 31 -82 13 -79 40 -136 92 -195 51 -58 178 -143
235 -157 24 -6 44 -15 44 -19 0 -13 -118 -20 -344 -20 -122 0 -228 -5 -236
-10 -13 -8 -16 -94 -20 -637 -6 -696 -5 -686 -73 -775 -50 -66 -107 -93 -192
-93 -121 1 -181 49 -225 179 -20 61 -20 75 -18 930 3 846 3 868 22 882 16 11
80 14 342 14 292 0 324 -2 342 -17z m3256 -175 c76 -115 186 -196 321 -237 39
-12 76 -25 84 -30 11 -7 13 -109 8 -617 -5 -654 -7 -684 -58 -790 -55 -116
-133 -161 -263 -151 -122 10 -193 75 -233 212 -15 54 -17 132 -21 780 -2 509
0 733 8 765 12 49 72 120 101 120 10 0 33 -23 53 -52z"/>
<path d="M21578 16532 c-26 -5 -32 -44 -19 -125 6 -40 14 -110 17 -157 3 -47
10 -99 15 -115 5 -17 16 -96 24 -175 25 -230 33 -310 45 -395 5 -44 17 -141
25 -215 26 -231 44 -373 68 -550 9 -63 18 -155 22 -205 3 -49 12 -124 20 -165
8 -41 21 -147 30 -235 15 -155 26 -249 45 -385 21 -150 30 -230 36 -315 3 -49
10 -103 15 -120 9 -29 26 -180 54 -463 8 -78 17 -147 20 -152 6 -10 14 -72 40
-325 8 -77 19 -174 25 -215 22 -171 31 -252 44 -387 8 -78 17 -146 20 -152 6
-10 18 -112 46 -386 6 -55 15 -131 20 -170 13 -88 27 -203 45 -375 9 -74 21
-166 28 -205 l12 -70 70 -6 c100 -9 1868 -10 1881 -1 16 10 22 34 40 157 25
175 32 232 44 360 9 109 24 224 50 390 5 33 12 98 15 145 6 86 18 191 36 310
9 60 24 186 50 420 12 105 20 169 42 340 8 63 20 165 26 225 12 114 25 223 41
335 5 36 17 139 25 230 9 91 23 197 30 235 15 75 31 206 40 320 9 116 26 255
40 340 8 44 19 134 25 200 5 66 15 154 21 195 15 109 24 187 53 453 14 131 28
243 32 248 3 5 10 49 14 97 26 256 41 387 55 482 19 123 45 370 52 486 l5 81
-32 7 c-18 3 -306 6 -639 6 -459 0 -610 -3 -619 -12 -7 -7 -12 -44 -13 -93 0
-44 -5 -107 -10 -140 -9 -61 -21 -218 -39 -530 -9 -160 -18 -297 -40 -630 -19
-290 -30 -469 -44 -762 -8 -166 -17 -307 -21 -312 -3 -6 -10 -88 -16 -183 -6
-95 -14 -238 -19 -318 -5 -80 -16 -275 -24 -435 -8 -159 -19 -319 -25 -355 -5
-36 -15 -175 -21 -310 -22 -470 -29 -585 -39 -620 -5 -19 -12 -47 -15 -62 -4
-16 -10 -28 -15 -28 -18 0 -19 7 -52 420 -11 132 -20 245 -38 450 -6 69 -17
224 -24 346 -8 121 -17 226 -21 233 -5 7 -14 108 -22 224 -31 503 -36 566 -45
647 -5 47 -16 186 -24 310 -8 124 -20 279 -26 345 -19 206 -26 293 -43 540
-24 345 -33 451 -44 530 -6 39 -16 174 -22 300 -12 236 -32 421 -47 435 -8 8
-1312 20 -1345 12z"/>
</g>
</svg>
